<?xml version="1.0" encoding="UTF-8"?>
<svg xmlns="http://www.w3.org/2000/svg" xmlns:xlink="http://www.w3.org/1999/xlink" width="125pt" height="45pt" viewBox="0 0 125 45" version="1.1">
<g id="surface1">
<path style=" stroke:none;fill-rule:nonzero;fill:rgb(100%,100%,100%);fill-opacity:1;" d="M 0.105469 0.390625 L 6.96875 0.390625 L 6.96875 36.121094 L 0.105469 36.121094 Z M 0.105469 0.390625 "/>
<path style=" stroke:none;fill-rule:nonzero;fill:rgb(100%,100%,100%);fill-opacity:1;" d="M 18.242188 0.464844 L 18.242188 14.757812 L 8.960938 14.757812 L 8.960938 21.90625 L 18.242188 21.90625 L 18.242188 36.195312 L 25.105469 36.195312 L 25.105469 0.464844 Z M 18.242188 0.464844 "/>
<path style=" stroke:none;fill-rule:nonzero;fill:rgb(100%,100%,100%);fill-opacity:1;" d="M 95.140625 31.597656 L 95.140625 33.917969 C 99.707031 33.488281 103.578125 30.242188 104.953125 25.6875 L 102.585938 25.6875 C 101.335938 28.933594 98.476562 31.203125 95.140625 31.597656 Z M 95.140625 31.597656 "/>
<path style=" stroke:none;fill-rule:nonzero;fill:rgb(100%,100%,100%);fill-opacity:1;" d="M 95.140625 10.417969 L 95.140625 12.726562 C 99.148438 13.195312 102.390625 16.351562 103.105469 20.488281 L 85.171875 20.488281 C 85.890625 16.351562 89.128906 13.195312 93.136719 12.726562 L 93.136719 10.417969 C 87.289062 10.953125 82.800781 16.054688 82.800781 22.167969 C 82.800781 28.28125 87.289062 33.382812 93.136719 33.917969 L 93.136719 31.609375 C 88.671875 31.085938 85.234375 27.257812 85.035156 22.582031 L 105.460938 22.582031 C 105.460938 22.445312 105.460938 22.308594 105.460938 22.160156 C 105.449219 16.058594 100.976562 10.96875 95.140625 10.417969 Z M 95.140625 10.417969 "/>
<path style=" stroke:none;fill-rule:nonzero;fill:rgb(100%,100%,100%);fill-opacity:1;" d="M 32.691406 42.375 C 32.691406 43.824219 31.5625 45 30.171875 45 C 28.777344 45 27.648438 43.824219 27.648438 42.375 C 27.648438 40.921875 28.777344 39.75 30.171875 39.75 C 31.5625 39.75 32.691406 40.921875 32.691406 42.375 Z M 32.691406 42.375 "/>
<path style=" stroke:none;fill-rule:nonzero;fill:rgb(100%,100%,100%);fill-opacity:1;" d="M 80.59375 2.625 C 80.59375 4.078125 79.464844 5.25 78.070312 5.25 C 76.675781 5.25 75.546875 4.078125 75.546875 2.625 C 75.546875 1.175781 76.675781 0 78.070312 0 C 79.464844 0 80.59375 1.175781 80.59375 2.625 Z M 80.59375 2.625 "/>
<path style=" stroke:none;fill-rule:nonzero;fill:rgb(100%,100%,100%);fill-opacity:1;" d="M 78.070312 6.738281 C 77.5 6.738281 76.9375 6.605469 76.417969 6.355469 L 76.417969 22.222656 C 76.417969 26.175781 73.835938 29.621094 70.152344 30.582031 C 66.46875 31.539062 62.632812 29.761719 60.847656 26.273438 C 59.0625 22.785156 59.789062 18.476562 62.605469 15.828125 C 65.425781 13.179688 69.613281 12.871094 72.765625 15.078125 C 72.8125 15.113281 73 15.265625 73.292969 15.515625 C 73.414062 15.617188 74.203125 16.476562 74.289062 16.730469 L 74.386719 12.167969 C 69.96875 9.195312 64.179688 9.722656 60.324219 13.445312 C 56.472656 17.171875 55.53125 23.144531 58.046875 27.953125 C 60.5625 32.761719 65.886719 35.179688 70.984375 33.828125 C 76.078125 32.480469 79.644531 27.699219 79.644531 22.226562 L 79.644531 6.394531 C 79.148438 6.621094 78.613281 6.738281 78.070312 6.738281 Z M 78.070312 6.738281 "/>
<path style=" stroke:none;fill-rule:nonzero;fill:rgb(100%,100%,100%);fill-opacity:1;" d="M 40.046875 9.210938 C 33.199219 9.21875 27.648438 14.996094 27.644531 22.128906 L 27.644531 39.429688 C 29.074219 38.089844 31.242188 38.074219 32.6875 39.402344 L 32.6875 22.128906 C 32.6875 17.894531 35.984375 14.460938 40.050781 14.464844 C 44.113281 14.464844 47.410156 17.898438 47.410156 22.128906 C 47.410156 26.363281 44.113281 29.792969 40.046875 29.792969 C 38.574219 29.792969 36.054688 29.289062 34.625 27.402344 L 34.582031 33.863281 C 36.226562 34.671875 38.210938 35.046875 40.046875 35.046875 C 46.902344 35.046875 52.457031 29.261719 52.457031 22.128906 C 52.457031 14.992188 46.902344 9.207031 40.046875 9.207031 Z M 40.046875 9.210938 "/>
<path style=" stroke:none;fill-rule:nonzero;fill:rgb(100%,100%,100%);fill-opacity:1;" d="M 108.738281 10.996094 L 123.242188 33.15625 L 124.894531 33.1875 L 110.390625 11.027344 Z M 108.738281 10.996094 "/>
<path style=" stroke:none;fill-rule:nonzero;fill:rgb(100%,100%,100%);fill-opacity:1;" d="M 124.894531 10.996094 L 123.242188 11.027344 L 118.027344 18.996094 L 118.84375 20.242188 Z M 124.894531 10.996094 "/>
<path style=" stroke:none;fill-rule:nonzero;fill:rgb(100%,100%,100%);fill-opacity:1;" d="M 108.738281 33.1875 L 110.390625 33.15625 L 115.609375 25.183594 L 114.792969 23.9375 Z M 108.738281 33.1875 "/>
</g>
</svg>
